<svg width="1440" height="685" viewBox="0 0 1440 685" fill="none" xmlns="http://www.w3.org/2000/svg">
<path fill-rule="evenodd" clip-rule="evenodd" d="M-11.5387 58.7582V415.008H48.3826V106.144L93.7966 379.085H134.795L181.471 98.5621V415.008H241.392V17.8712H142.569L113.981 238.192L85.9762 17.8712H-16.6109L-21 58.7582V17.8712H1453L1354.18 17.8712L1325.59 238.192L1297.58 17.8712H1195L1190.61 58.7582H1200.07V415.008H1259.99V106.144L1305.4 379.085H1346.4L1393.08 98.5621V415.008H1453L1453 684.871H-21V135.871V118.871V58.7582H-11.5387ZM1453 17.8712L1453 5.72205e-06L1356.5 0H1453L1453 17.8712ZM1168.83 17.8712V415.008H1108.91V58.7582H1099.44L1103.83 17.8712H1168.83ZM1074.37 17.8712V415.008H1014.45V249.564H978.493V415.008H918.572V58.7582H909.111L913.5 17.8712H978.493V190.806H1014.45V17.8712H1074.37ZM890.311 383.508C890.311 395.576 887.768 406.076 882.68 415.008H726.316V58.7582H716.855L721.244 17.8712H875.355C885.326 28.2351 890.311 41.8641 890.311 58.7582V383.508ZM670.153 17.8712L705.269 415.008H645.264L640.82 366.449H590.991L586.547 415.008H526.552L558.192 58.7582H546.838L551.227 17.8712H670.153ZM427.646 386.035C427.646 396.983 425.552 406.641 421.365 415.008H276.239C272.052 406.641 269.958 396.983 269.958 386.035V58.7582H260.497L264.886 17.8712H329.88V382.876C329.88 384.982 330.931 386.035 333.033 386.035H364.571C366.673 386.035 367.725 384.982 367.725 382.876V17.8712H427.646V386.035ZM461.027 27.1678H517.794L496.979 130.153H440.212L461.027 27.1678ZM635.774 307.691H596.037L616.221 87.8214L635.774 307.691ZM830.39 61.9172C830.39 59.8112 829.339 58.7582 827.236 58.7582H786.238V383.508H827.236C829.339 383.508 830.39 382.455 830.39 380.349V61.9172Z" fill="#DDDDDD"/>
<path d="M359.825 568V584.43C359.825 584.947 360.083 585.205 360.6 585.205H366.8C367.317 585.205 367.575 584.947 367.575 584.43V556.53L355.33 551.105C354.4 550.795 353.108 550.278 351.455 549.555C349.802 548.728 348.303 547.54 346.96 545.99C345.72 544.44 345.1 542.322 345.1 539.635V504.295C345.1 499.955 346.443 496.493 349.13 493.91C351.817 491.223 355.33 489.88 359.67 489.88H367.73C372.07 489.88 375.583 491.223 378.27 493.91C380.957 496.493 382.3 499.955 382.3 504.295V527.235L367.575 525.995V505.07C367.575 504.553 367.317 504.295 366.8 504.295H360.6C360.083 504.295 359.825 504.553 359.825 505.07V537.465L372.07 542.89C373 543.303 374.292 543.872 375.945 544.595C377.598 545.318 379.045 546.455 380.285 548.005C381.628 549.555 382.3 551.673 382.3 554.36V585.205C382.3 589.545 380.957 593.058 378.27 595.745C375.583 598.328 372.07 599.62 367.73 599.62H359.67C355.33 599.62 351.817 598.328 349.13 595.745C346.443 593.058 345.1 589.545 345.1 585.205V568H359.825ZM428.842 585.205C428.842 589.545 427.499 593.058 424.812 595.745C422.126 598.328 418.612 599.62 414.272 599.62H403.112C398.772 599.62 395.259 598.328 392.572 595.745C389.886 593.058 388.542 589.545 388.542 585.205V504.295C388.542 499.955 389.886 496.493 392.572 493.91C395.259 491.223 398.772 489.88 403.112 489.88H414.272C418.612 489.88 422.126 491.223 424.812 493.91C427.499 496.493 428.842 499.955 428.842 504.295V585.205ZM404.042 504.295C403.526 504.295 403.267 504.553 403.267 505.07V584.43C403.267 584.947 403.526 585.205 404.042 585.205H413.342C413.859 585.205 414.117 584.947 414.117 584.43V505.07C414.117 504.553 413.859 504.295 413.342 504.295H404.042ZM468.611 537.465L467.061 551.88H451.251V599H436.526V504.915H434.201L435.751 490.5H471.711L470.161 504.915H451.251V537.465H468.611ZM476.335 504.915V490.5H518.96V504.915H505.01V599H490.285V504.915H476.335ZM533.251 599L523.641 490.5H538.366L544.101 554.515L550.611 505.845H560.686L567.196 554.515L572.931 490.5H587.656L578.046 599H563.166L555.726 540.565L548.131 599H533.251ZM600.917 599H586.192L594.562 504.915H591.772L593.322 490.5H621.687L631.297 599H616.572L614.867 580.4H602.622L600.917 599ZM603.862 565.985H613.627L608.822 512.045L603.862 565.985ZM634.326 504.915L635.876 490.5H660.366C664.706 490.5 668.22 491.843 670.906 494.53C673.593 497.113 674.936 500.575 674.936 504.915V553.43C674.936 555.703 674.471 557.77 673.541 559.63C672.611 561.387 671.371 562.885 669.821 564.125L679.741 599H664.861L656.026 567.845H651.376V599H636.651V504.915H634.326ZM659.436 504.915H651.376V553.43H659.436C659.953 553.43 660.211 553.172 660.211 552.655V505.69C660.211 505.173 659.953 504.915 659.436 504.915ZM717.985 584.585L716.745 599H682.8V504.915H680.475L682.025 490.5H717.985L716.435 504.915H697.525V537.465H714.885L713.335 551.88H697.525V584.585H717.985ZM787.16 584.585L785.92 599H751.975V504.915H749.65L751.2 490.5H787.16L785.61 504.915H766.7V537.465H784.06L782.51 551.88H766.7V584.585H787.16ZM825.848 490.5H840.573V599H825.848L808.798 532.66V599H794.073V504.915H791.748L793.298 490.5H809.573L826.778 559.475L825.848 490.5ZM887.788 584.585C887.788 588.925 886.444 592.438 883.758 595.125C881.071 597.708 877.558 599 873.218 599H862.058C857.718 599 854.204 597.708 851.518 595.125C848.831 592.438 847.488 588.925 847.488 584.585V504.915C847.488 500.575 848.831 497.113 851.518 494.53C854.204 491.843 857.718 490.5 862.058 490.5H873.218C877.558 490.5 881.071 491.843 883.758 494.53C886.444 497.113 887.788 500.575 887.788 504.915V529.715H873.063V505.69C873.063 505.173 872.804 504.915 872.288 504.915H862.988C862.471 504.915 862.213 505.173 862.213 505.69V583.81C862.213 584.327 862.471 584.585 862.988 584.585H872.288C872.804 584.585 873.063 584.327 873.063 583.81V551.725H867.018L868.258 537.31H887.788V584.585ZM894.732 599V504.915H892.407L893.957 490.5H909.457V599H894.732ZM949.667 490.5H964.392V599H949.667L932.617 532.66V599H917.892V504.915H915.567L917.117 490.5H933.392L950.597 559.475L949.667 490.5ZM1007.25 584.585L1006.01 599H972.063V504.915H969.738L971.288 490.5H1007.25L1005.7 504.915H986.788V537.465H1004.15L1002.6 551.88H986.788V584.585H1007.25ZM1048.57 584.585L1047.33 599H1013.39V504.915H1011.06L1012.61 490.5H1048.57L1047.02 504.915H1028.11V537.465H1045.47L1043.92 551.88H1028.11V584.585H1048.57ZM1052.4 504.915L1053.95 490.5H1078.44C1082.78 490.5 1086.3 491.843 1088.98 494.53C1091.67 497.113 1093.01 500.575 1093.01 504.915V553.43C1093.01 555.703 1092.55 557.77 1091.62 559.63C1090.69 561.387 1089.45 562.885 1087.9 564.125L1097.82 599H1082.94L1074.1 567.845H1069.45V599H1054.73V504.915H1052.4ZM1077.51 504.915H1069.45V553.43H1077.51C1078.03 553.43 1078.29 553.172 1078.29 552.655V505.69C1078.29 505.173 1078.03 504.915 1077.51 504.915Z" fill="#31511E"/>
</svg>
